<svg width="167" height="26" viewBox="0 0 167 26" fill="none" xmlns="http://www.w3.org/2000/svg">
<path d="M36.9912 16.0962V8.59621H38.2639V16.0962H36.9912ZM33.8776 12.9826V11.7098H41.3776V12.9826H33.8776ZM43.8336 15.7553V14.5962L48.9472 6.5053H49.7881V8.30075H49.2199L45.3563 14.4144V14.5053H52.2426V15.7553H43.8336ZM49.3108 18.1417V15.403V14.8633V6.5053H50.6517V18.1417H49.3108ZM54.0992 15.7553V14.5962L59.2128 6.5053H60.0537V8.30075H59.4855L55.6219 14.4144V14.5053H62.5083V15.7553H54.0992ZM59.5764 18.1417V15.403V14.8633V6.5053H60.9174V18.1417H59.5764ZM68.2739 18.3008C67.6072 18.3008 67.0068 18.1682 66.4728 17.903C65.9387 17.6379 65.5106 17.2742 65.1887 16.8121C64.8667 16.35 64.6906 15.8235 64.6603 15.2326H66.0239C66.0769 15.7591 66.3156 16.1947 66.7398 16.5394C67.1678 16.8803 67.6792 17.0508 68.2739 17.0508C68.7512 17.0508 69.1754 16.939 69.5466 16.7155C69.9216 16.492 70.2152 16.1852 70.4273 15.7951C70.6432 15.4011 70.7512 14.9561 70.7512 14.4598C70.7512 13.9523 70.6394 13.4996 70.4159 13.1019C70.1962 12.7004 69.8932 12.3841 69.5068 12.153C69.1205 11.922 68.6792 11.8045 68.183 11.8008C67.8269 11.797 67.4614 11.8519 67.0864 11.9655C66.7114 12.0754 66.4027 12.2174 66.1603 12.3917L64.8421 12.2326L65.5466 6.5053H71.5921V7.7553H66.7284L66.3193 11.1871H66.3875C66.6262 10.9977 66.9254 10.8405 67.2853 10.7155C67.6451 10.5905 68.0201 10.528 68.4103 10.528C69.1224 10.528 69.7568 10.6985 70.3137 11.0394C70.8743 11.3765 71.3137 11.8386 71.6318 12.4258C71.9538 13.0129 72.1148 13.6833 72.1148 14.4371C72.1148 15.1795 71.9481 15.8424 71.6148 16.4258C71.2853 17.0053 70.8307 17.4636 70.2512 17.8008C69.6716 18.1341 69.0125 18.3008 68.2739 18.3008ZM82.5992 18.3008C81.8189 18.3008 81.1295 18.1625 80.531 17.886C79.9363 17.6057 79.4723 17.2212 79.1389 16.7326C78.8056 16.2401 78.6408 15.6795 78.6446 15.0508C78.6408 14.5583 78.7374 14.1038 78.9344 13.6871C79.1314 13.2667 79.4003 12.9163 79.7412 12.636C80.0859 12.3519 80.4704 12.172 80.8946 12.0962V12.028C80.3378 11.8841 79.8946 11.5716 79.5651 11.0905C79.2355 10.6057 79.0727 10.0545 79.0764 9.43712C79.0727 8.84621 79.2223 8.3178 79.5253 7.85189C79.8283 7.38598 80.245 7.01856 80.7753 6.74962C81.3094 6.48068 81.9174 6.34621 82.5992 6.34621C83.2734 6.34621 83.8757 6.48068 84.406 6.74962C84.9363 7.01856 85.353 7.38598 85.656 7.85189C85.9628 8.3178 86.1181 8.84621 86.1219 9.43712C86.1181 10.0545 85.9496 10.6057 85.6162 11.0905C85.2867 11.5716 84.8492 11.8841 84.3037 12.028V12.0962C84.7242 12.172 85.103 12.3519 85.4401 12.636C85.7772 12.9163 86.0461 13.2667 86.2469 13.6871C86.4477 14.1038 86.5499 14.5583 86.5537 15.0508C86.5499 15.6795 86.3795 16.2401 86.0424 16.7326C85.709 17.2212 85.245 17.6057 84.6503 17.886C84.0594 18.1625 83.3757 18.3008 82.5992 18.3008ZM82.5992 17.0508C83.1257 17.0508 83.5802 16.9655 83.9628 16.7951C84.3454 16.6246 84.6408 16.3841 84.8492 16.0735C85.0575 15.7629 85.1636 15.3992 85.1674 14.9826C85.1636 14.5432 85.0499 14.1549 84.8264 13.8178C84.603 13.4807 84.298 13.2155 83.9117 13.0223C83.5291 12.8292 83.0916 12.7326 82.5992 12.7326C82.103 12.7326 81.6598 12.8292 81.2696 13.0223C80.8833 13.2155 80.5783 13.4807 80.3549 13.8178C80.1352 14.1549 80.0272 14.5432 80.031 14.9826C80.0272 15.3992 80.1276 15.7629 80.3321 16.0735C80.5405 16.3841 80.8378 16.6246 81.2242 16.7951C81.6105 16.9655 82.0689 17.0508 82.5992 17.0508ZM82.5992 11.528C83.0158 11.528 83.3852 11.4447 83.7071 11.278C84.0329 11.1114 84.2886 10.8784 84.4742 10.5792C84.6598 10.2799 84.7545 9.92954 84.7583 9.52803C84.7545 9.13409 84.6617 8.79128 84.4799 8.49962C84.298 8.20416 84.0461 7.97689 83.7242 7.8178C83.4022 7.65492 83.0272 7.57348 82.5992 7.57348C82.1636 7.57348 81.7829 7.65492 81.4571 7.8178C81.1314 7.97689 80.8795 8.20416 80.7014 8.49962C80.5234 8.79128 80.4363 9.13409 80.4401 9.52803C80.4363 9.92954 80.5253 10.2799 80.7071 10.5792C80.8927 10.8784 81.1484 11.1114 81.4742 11.278C81.7999 11.4447 82.1749 11.528 82.5992 11.528ZM89.0949 18.1417L94.2995 7.84621V7.7553H88.2995V6.5053H95.754V7.82348L90.5722 18.1417H89.0949ZM106.076 6.34621C106.554 6.35 107.031 6.4409 107.508 6.61893C107.986 6.79697 108.421 7.09242 108.815 7.5053C109.209 7.91439 109.525 8.4731 109.764 9.18143C110.003 9.88977 110.122 10.778 110.122 11.8462C110.122 12.8803 110.023 13.7989 109.826 14.6019C109.633 15.4011 109.353 16.0754 108.986 16.6246C108.622 17.1739 108.179 17.5905 107.656 17.8746C107.137 18.1587 106.55 18.3008 105.895 18.3008C105.243 18.3008 104.662 18.172 104.15 17.9144C103.643 17.653 103.226 17.2913 102.9 16.8292C102.578 16.3633 102.372 15.8235 102.281 15.2098H103.667C103.792 15.7439 104.04 16.1852 104.412 16.5337C104.787 16.8784 105.281 17.0508 105.895 17.0508C106.792 17.0508 107.501 16.6587 108.02 15.8746C108.542 15.0905 108.804 13.9826 108.804 12.5508H108.713C108.501 12.8689 108.249 13.1436 107.957 13.3746C107.665 13.6057 107.342 13.7837 106.986 13.9087C106.629 14.0337 106.251 14.0962 105.849 14.0962C105.183 14.0962 104.571 13.9314 104.014 13.6019C103.461 13.2686 103.018 12.8121 102.684 12.2326C102.355 11.6492 102.19 10.9826 102.19 10.2326C102.19 9.52045 102.349 8.86893 102.667 8.27803C102.989 7.68333 103.44 7.20984 104.02 6.85757C104.603 6.5053 105.289 6.33484 106.076 6.34621ZM106.076 7.59621C105.599 7.59621 105.169 7.71553 104.787 7.95416C104.408 8.18901 104.107 8.50719 103.883 8.90871C103.664 9.30643 103.554 9.74772 103.554 10.2326C103.554 10.7174 103.66 11.1587 103.872 11.5564C104.088 11.9504 104.381 12.2648 104.753 12.4996C105.128 12.7307 105.554 12.8462 106.031 12.8462C106.391 12.8462 106.726 12.7761 107.037 12.636C107.347 12.492 107.618 12.297 107.849 12.0508C108.084 11.8008 108.268 11.5186 108.4 11.2042C108.533 10.886 108.599 10.5545 108.599 10.2098C108.599 9.7553 108.489 9.32916 108.27 8.93143C108.054 8.53371 107.754 8.21174 107.372 7.96553C106.993 7.71931 106.561 7.59621 106.076 7.59621ZM116.061 6.34621C116.538 6.35 117.015 6.4409 117.493 6.61893C117.97 6.79697 118.406 7.09242 118.799 7.5053C119.193 7.91439 119.51 8.4731 119.748 9.18143C119.987 9.88977 120.106 10.778 120.106 11.8462C120.106 12.8803 120.008 13.7989 119.811 14.6019C119.618 15.4011 119.337 16.0754 118.97 16.6246C118.606 17.1739 118.163 17.5905 117.64 17.8746C117.121 18.1587 116.534 18.3008 115.879 18.3008C115.227 18.3008 114.646 18.172 114.135 17.9144C113.627 17.653 113.21 17.2913 112.885 16.8292C112.563 16.3633 112.356 15.8235 112.265 15.2098H113.652C113.777 15.7439 114.025 16.1852 114.396 16.5337C114.771 16.8784 115.265 17.0508 115.879 17.0508C116.777 17.0508 117.485 16.6587 118.004 15.8746C118.527 15.0905 118.788 13.9826 118.788 12.5508H118.697C118.485 12.8689 118.233 13.1436 117.942 13.3746C117.65 13.6057 117.326 13.7837 116.97 13.9087C116.614 14.0337 116.235 14.0962 115.834 14.0962C115.167 14.0962 114.555 13.9314 113.998 13.6019C113.445 13.2686 113.002 12.8121 112.669 12.2326C112.339 11.6492 112.174 10.9826 112.174 10.2326C112.174 9.52045 112.334 8.86893 112.652 8.27803C112.974 7.68333 113.424 7.20984 114.004 6.85757C114.587 6.5053 115.273 6.33484 116.061 6.34621ZM116.061 7.59621C115.584 7.59621 115.154 7.71553 114.771 7.95416C114.392 8.18901 114.091 8.50719 113.868 8.90871C113.648 9.30643 113.538 9.74772 113.538 10.2326C113.538 10.7174 113.644 11.1587 113.856 11.5564C114.072 11.9504 114.366 12.2648 114.737 12.4996C115.112 12.7307 115.538 12.8462 116.015 12.8462C116.375 12.8462 116.71 12.7761 117.021 12.636C117.332 12.492 117.602 12.297 117.834 12.0508C118.068 11.8008 118.252 11.5186 118.385 11.2042C118.517 10.886 118.584 10.5545 118.584 10.2098C118.584 9.7553 118.474 9.32916 118.254 8.93143C118.038 8.53371 117.739 8.21174 117.356 7.96553C116.977 7.71931 116.546 7.59621 116.061 7.59621ZM126.045 6.34621C126.522 6.35 127 6.4409 127.477 6.61893C127.954 6.79697 128.39 7.09242 128.784 7.5053C129.178 7.91439 129.494 8.4731 129.733 9.18143C129.971 9.88977 130.091 10.778 130.091 11.8462C130.091 12.8803 129.992 13.7989 129.795 14.6019C129.602 15.4011 129.322 16.0754 128.954 16.6246C128.591 17.1739 128.147 17.5905 127.625 17.8746C127.106 18.1587 126.519 18.3008 125.863 18.3008C125.212 18.3008 124.63 18.172 124.119 17.9144C123.611 17.653 123.195 17.2913 122.869 16.8292C122.547 16.3633 122.341 15.8235 122.25 15.2098H123.636C123.761 15.7439 124.009 16.1852 124.38 16.5337C124.755 16.8784 125.25 17.0508 125.863 17.0508C126.761 17.0508 127.469 16.6587 127.988 15.8746C128.511 15.0905 128.772 13.9826 128.772 12.5508H128.682C128.469 12.8689 128.218 13.1436 127.926 13.3746C127.634 13.6057 127.31 13.7837 126.954 13.9087C126.598 14.0337 126.219 14.0962 125.818 14.0962C125.151 14.0962 124.54 13.9314 123.983 13.6019C123.43 13.2686 122.986 12.8121 122.653 12.2326C122.324 11.6492 122.159 10.9826 122.159 10.2326C122.159 9.52045 122.318 8.86893 122.636 8.27803C122.958 7.68333 123.409 7.20984 123.988 6.85757C124.572 6.5053 125.257 6.33484 126.045 6.34621ZM126.045 7.59621C125.568 7.59621 125.138 7.71553 124.755 7.95416C124.377 8.18901 124.076 8.50719 123.852 8.90871C123.632 9.30643 123.522 9.74772 123.522 10.2326C123.522 10.7174 123.629 11.1587 123.841 11.5564C124.057 11.9504 124.35 12.2648 124.721 12.4996C125.096 12.7307 125.522 12.8462 126 12.8462C126.36 12.8462 126.695 12.7761 127.005 12.636C127.316 12.492 127.587 12.297 127.818 12.0508C128.053 11.8008 128.236 11.5186 128.369 11.2042C128.502 10.886 128.568 10.5545 128.568 10.2098C128.568 9.7553 128.458 9.32916 128.238 8.93143C128.022 8.53371 127.723 8.21174 127.341 7.96553C126.962 7.71931 126.53 7.59621 126.045 7.59621ZM140.62 18.3008C139.764 18.3008 139.035 18.0678 138.433 17.6019C137.831 17.1322 137.37 16.4523 137.052 15.5621C136.734 14.6682 136.575 13.5886 136.575 12.3235C136.575 11.0659 136.734 9.99204 137.052 9.10189C137.374 8.20795 137.836 7.52613 138.439 7.05643C139.045 6.58295 139.772 6.34621 140.62 6.34621C141.469 6.34621 142.194 6.58295 142.797 7.05643C143.403 7.52613 143.865 8.20795 144.183 9.10189C144.505 9.99204 144.666 11.0659 144.666 12.3235C144.666 13.5886 144.507 14.6682 144.189 15.5621C143.87 16.4523 143.41 17.1322 142.808 17.6019C142.206 18.0678 141.477 18.3008 140.62 18.3008ZM140.62 17.0508C141.469 17.0508 142.128 16.6417 142.598 15.8235C143.067 15.0053 143.302 13.8386 143.302 12.3235C143.302 11.3159 143.194 10.458 142.978 9.74962C142.766 9.04128 142.459 8.50151 142.058 8.1303C141.66 7.75909 141.181 7.57348 140.62 7.57348C139.78 7.57348 139.122 7.98825 138.649 8.8178C138.175 9.64356 137.939 10.8121 137.939 12.3235C137.939 13.3311 138.045 14.1871 138.257 14.8917C138.469 15.5962 138.774 16.1322 139.172 16.4996C139.573 16.867 140.056 17.0508 140.62 17.0508ZM150.62 18.3008C149.764 18.3008 149.035 18.0678 148.433 17.6019C147.831 17.1322 147.37 16.4523 147.052 15.5621C146.734 14.6682 146.575 13.5886 146.575 12.3235C146.575 11.0659 146.734 9.99204 147.052 9.10189C147.374 8.20795 147.836 7.52613 148.439 7.05643C149.045 6.58295 149.772 6.34621 150.62 6.34621C151.469 6.34621 152.194 6.58295 152.797 7.05643C153.403 7.52613 153.865 8.20795 154.183 9.10189C154.505 9.99204 154.666 11.0659 154.666 12.3235C154.666 13.5886 154.507 14.6682 154.189 15.5621C153.87 16.4523 153.41 17.1322 152.808 17.6019C152.206 18.0678 151.477 18.3008 150.62 18.3008ZM150.62 17.0508C151.469 17.0508 152.128 16.6417 152.598 15.8235C153.067 15.0053 153.302 13.8386 153.302 12.3235C153.302 11.3159 153.194 10.458 152.978 9.74962C152.766 9.04128 152.459 8.50151 152.058 8.1303C151.66 7.75909 151.181 7.57348 150.62 7.57348C149.78 7.57348 149.122 7.98825 148.649 8.8178C148.175 9.64356 147.939 10.8121 147.939 12.3235C147.939 13.3311 148.045 14.1871 148.257 14.8917C148.469 15.5962 148.774 16.1322 149.172 16.4996C149.573 16.867 150.056 17.0508 150.62 17.0508ZM160.62 18.3008C159.764 18.3008 159.035 18.0678 158.433 17.6019C157.831 17.1322 157.37 16.4523 157.052 15.5621C156.734 14.6682 156.575 13.5886 156.575 12.3235C156.575 11.0659 156.734 9.99204 157.052 9.10189C157.374 8.20795 157.836 7.52613 158.439 7.05643C159.045 6.58295 159.772 6.34621 160.62 6.34621C161.469 6.34621 162.194 6.58295 162.797 7.05643C163.403 7.52613 163.865 8.20795 164.183 9.10189C164.505 9.99204 164.666 11.0659 164.666 12.3235C164.666 13.5886 164.507 14.6682 164.189 15.5621C163.87 16.4523 163.41 17.1322 162.808 17.6019C162.206 18.0678 161.477 18.3008 160.62 18.3008ZM160.62 17.0508C161.469 17.0508 162.128 16.6417 162.598 15.8235C163.067 15.0053 163.302 13.8386 163.302 12.3235C163.302 11.3159 163.194 10.458 162.978 9.74962C162.766 9.04128 162.459 8.50151 162.058 8.1303C161.66 7.75909 161.181 7.57348 160.62 7.57348C159.78 7.57348 159.122 7.98825 158.649 8.8178C158.175 9.64356 157.939 10.8121 157.939 12.3235C157.939 13.3311 158.045 14.1871 158.257 14.8917C158.469 15.5962 158.774 16.1322 159.172 16.4996C159.573 16.867 160.056 17.0508 160.62 17.0508Z" fill="#4D4C4C"/>
<path d="M2.71216 3.74677C2.71216 3.08311 3.25016 2.5451 3.91382 2.5451H6.50086C7.08828 2.5451 7.58961 2.96979 7.68618 3.54922L8.57458 8.87966C8.66131 9.40002 8.39851 9.91609 7.92667 10.152L6.06632 11.0822C7.40774 14.4156 10.0684 17.0762 13.4017 18.4176L14.3319 16.5573C14.5678 16.0854 15.0839 15.8226 15.6043 15.9093L20.9347 16.7978C21.5141 16.8943 21.9388 17.3956 21.9388 17.9831V20.5701C21.9388 21.2338 21.4008 21.7718 20.7372 21.7718H18.3338C9.70622 21.7718 2.71216 14.7777 2.71216 6.15011V3.74677Z" fill="#937DC2"/>
</svg>
